<svg width="38" height="27" viewBox="0 0 38 27" fill="none" xmlns="http://www.w3.org/2000/svg">
<path d="M33.2513 0.81543H4.67983C2.21471 0.816267 0.216662 2.81459 0.215546 5.27972V21.9491C0.216662 24.4142 2.21471 26.4128 4.67983 26.4134H33.2513C35.7164 26.4128 37.7144 24.4142 37.7155 21.9491V5.27972C37.7144 2.81459 35.7164 0.816267 33.2513 0.81543ZM4.67983 2.60114H33.2513C34.5373 2.60449 35.6408 3.51716 35.8852 4.77944L18.9655 14.2083L2.0459 4.77944C2.29032 3.51716 3.39384 2.60449 4.67983 2.60114ZM33.2513 24.619H4.67983C3.20243 24.6145 2.00545 23.4178 2.00126 21.9404V6.79757L18.528 16.0116C18.662 16.0852 18.8124 16.1254 18.9655 16.1279C19.1193 16.1296 19.2702 16.0894 19.403 16.0116L35.9298 6.79757V21.9404C35.9287 23.4192 34.7301 24.6176 33.2513 24.619Z" fill="white"/>
</svg>
