<svg width="130" height="130" viewBox="0 0 130 130" fill="none" xmlns="http://www.w3.org/2000/svg">
<path d="M109.055 49L109.055 23.3132H87.7719L65.0003 0L42.2284 23.3132H20.9452V49L13 57.5V126.5H116V57.5L109.055 49ZM65.0003 6L81.5 23.3132H49L65.0003 6ZM25 27H105V62.5L65.0003 100.5L25 62.5V27ZM112.606 122.39H17.3939V59.6299L20.9452 55.9939V64.3442L65.0003 106.705L109.055 64.3442V55.9939L112.606 59.6299L112.606 122.39Z" fill="#161616"/>
<path d="M74.9419 34H56V38H74.9419V34Z" fill="#161616"/>
<path d="M96 62H33V66H96V62Z" fill="#161616"/>
<path d="M88 48H42V52H88V48Z" fill="#161616"/>
</svg>
