<svg width="130" height="130" viewBox="0 0 130 130" fill="none" xmlns="http://www.w3.org/2000/svg">
<path d="M2.40657 130H96.7813C98.0299 130 98.913 128.847 98.913 127.598V78.8114L129.13 48.5921C130.02 47.7178 130.033 46.2882 129.16 45.3973L117.136 33.3578C116.232 32.4757 114.789 32.4746 113.884 33.3556L98.913 48.2356V25.2791C98.9373 24.6874 98.7209 24.1112 98.3147 23.6795L75.4698 0.731912C75.0657 0.288128 74.5016 0.0242867 73.9022 0H2.40657C1.15912 0 0.282593 1.15251 0.282593 2.40107V127.599C0.282593 128.847 1.15912 130 2.40657 130ZM74.5844 80.9994L81.5503 87.9653L71.086 91.4637L74.5844 80.9994ZM85.7309 85.7508L76.7978 76.8188L105.487 48.1936L114.356 57.0627L85.7309 85.7508ZM115.552 38.1522L124.397 46.998L117.549 53.8623L108.688 44.9999L115.552 38.1522ZM76.3043 7.85895L91.3234 22.8913H76.3043V7.85895ZM4.80433 4.52174H71.7826V25.2791C71.7561 25.851 71.9692 26.4074 72.3732 26.8125C72.7761 27.2188 73.3303 27.4362 73.9022 27.413H94.3913V52.7474L71.9371 75.2148C71.6998 75.4466 71.5232 75.7325 71.4227 76.0482L68.2345 85.6304H19.415C18.1664 85.6304 17.1541 86.6427 17.1541 87.8913C17.1541 89.1399 18.1664 90.1522 19.415 90.1522H66.7243L65.3621 94.2787C65.0905 95.0824 65.3025 95.9721 65.9074 96.5672C66.0664 96.7261 66.2463 96.9348 66.4373 96.9348H19.415C18.1664 96.9348 17.1541 97.9471 17.1541 99.1956C17.1541 100.444 18.1664 101.457 19.415 101.457H79.6117C80.8614 101.457 81.8726 100.444 81.8726 99.1956C81.8726 97.9471 80.8614 96.9348 79.6117 96.9348H68.6772L86.4495 91.0431C86.762 90.9404 87.0446 90.7604 87.2698 90.522L94.3913 83.3431V125.478H4.80433V4.52174Z" fill="#161616"/>
</svg>
