<svg width="110" height="122" viewBox="0 0 110 122" fill="none" xmlns="http://www.w3.org/2000/svg">
<path d="M88.4587 0.628174H25.3691C25.2618 0.629296 25.1547 0.639831 25.0492 0.659658C25.038 0.659658 25.0269 0.659658 25.0157 0.659658C24.8671 0.691401 24.7233 0.742625 24.5881 0.812002C24.5526 0.829267 24.5201 0.847549 24.4865 0.867861C24.3504 0.94366 24.2248 1.03687 24.1128 1.14513L0.968731 24.2943C0.85891 24.4072 0.764641 24.5342 0.688418 24.6721C0.671153 24.7036 0.653887 24.734 0.637637 24.7665C0.567269 24.9041 0.515037 25.0502 0.482246 25.2012V25.2195C0.46074 25.3289 0.449519 25.4401 0.448731 25.5516V119.598C0.448597 119.832 0.494479 120.063 0.583751 120.279C0.673024 120.494 0.803937 120.69 0.969005 120.856C1.13407 121.021 1.33006 121.152 1.54576 121.241C1.76145 121.33 1.99263 121.376 2.22607 121.376H88.4587C88.9301 121.376 89.3822 121.189 89.7155 120.855C90.0488 120.522 90.2361 120.07 90.2361 119.598V2.40552C90.2361 1.93414 90.0488 1.48206 89.7155 1.14875C89.3822 0.815429 88.9301 0.628174 88.4587 0.628174ZM23.5918 6.69653V23.7743H6.51404L23.5918 6.69653ZM86.6814 117.817H4.00037V27.3249H25.3691C25.8404 27.3246 26.2923 27.1373 26.6256 26.804C26.9589 26.4708 27.1462 26.0188 27.1465 25.5475V4.18286H86.6814V117.817Z" fill="#161616"/>
<path d="M109.539 30.6785C109.539 30.6349 109.539 30.5912 109.533 30.5475L107.987 20.0378C107.926 19.6148 107.715 19.228 107.392 18.9482C107.069 18.6684 106.655 18.5144 106.228 18.5144H99.7646C99.3373 18.5144 98.9242 18.6684 98.6011 18.9482C98.2781 19.228 98.0666 19.6148 98.0056 20.0378L96.4598 30.5475C96.4537 30.5912 96.4598 30.6349 96.4537 30.6785C96.4476 30.7222 96.4415 30.7618 96.4415 30.8065V87.8369C96.4415 87.8745 96.4497 87.909 96.4517 87.9445C96.4545 88.0061 96.461 88.0675 96.471 88.1284C96.4818 88.1915 96.4964 88.2539 96.5147 88.3153C96.5238 88.3488 96.5268 88.3833 96.538 88.4168L101.311 102.282C101.432 102.632 101.659 102.935 101.96 103.15C102.261 103.365 102.622 103.48 102.992 103.48C103.362 103.48 103.722 103.365 104.024 103.15C104.325 102.935 104.552 102.632 104.672 102.282L109.458 88.4219C109.469 88.3884 109.472 88.3539 109.481 88.3203C109.499 88.259 109.514 88.1966 109.525 88.1335C109.535 88.0726 109.541 88.0112 109.544 87.9496C109.544 87.9141 109.554 87.8796 109.554 87.842V30.8065C109.554 30.7618 109.545 30.7212 109.539 30.6785ZM105.997 65.1712H99.9962V32.5839H105.997V65.1712ZM99.9962 68.7259H105.997V86.0596H99.9962V68.7259ZM104.693 22.0742L105.716 29.0292H100.277L101.299 22.0742H104.693ZM102.996 96.2473L100.711 89.6142H105.282L102.996 96.2473Z" fill="#161616"/>
<path d="M70.7056 48.6825H19.9752C19.5038 48.6825 19.0517 48.8697 18.7184 49.2031C18.3851 49.5364 18.1978 49.9885 18.1978 50.4598C18.1978 50.9312 18.3851 51.3833 18.7184 51.7166C19.0517 52.0499 19.5038 52.2372 19.9752 52.2372H70.7056C71.177 52.2372 71.6291 52.0499 71.9624 51.7166C72.2957 51.3833 72.483 50.9312 72.483 50.4598C72.483 49.9885 72.2957 49.5364 71.9624 49.2031C71.6291 48.8697 71.177 48.6825 70.7056 48.6825Z" fill="#161616"/>
<path d="M70.7056 59.7811H19.9752C19.5038 59.7811 19.0517 59.9684 18.7184 60.3017C18.3851 60.635 18.1978 61.0871 18.1978 61.5585C18.1978 62.0299 18.3851 62.4819 18.7184 62.8153C19.0517 63.1486 19.5038 63.3358 19.9752 63.3358H70.7056C71.177 63.3358 71.6291 63.1486 71.9624 62.8153C72.2957 62.4819 72.483 62.0299 72.483 61.5585C72.483 61.0871 72.2957 60.635 71.9624 60.3017C71.6291 59.9684 71.177 59.7811 70.7056 59.7811Z" fill="#161616"/>
<path d="M70.7056 37.5807H19.9752C19.5038 37.5807 19.0517 37.7679 18.7184 38.1013C18.3851 38.4346 18.1978 38.8867 18.1978 39.358C18.1978 39.8294 18.3851 40.2815 18.7184 40.6148C19.0517 40.9481 19.5038 41.1354 19.9752 41.1354H70.7056C71.177 41.1354 71.6291 40.9481 71.9624 40.6148C72.2957 40.2815 72.483 39.8294 72.483 39.358C72.483 38.8867 72.2957 38.4346 71.9624 38.1013C71.6291 37.7679 71.177 37.5807 70.7056 37.5807Z" fill="#161616"/>
<path d="M43.7133 18.4829H70.7056C71.177 18.4829 71.629 18.2957 71.9624 17.9623C72.2957 17.629 72.4829 17.1769 72.4829 16.7056C72.4829 16.2342 72.2957 15.7821 71.9624 15.4488C71.629 15.1155 71.177 14.9282 70.7056 14.9282H43.7133C43.2419 14.9282 42.7899 15.1155 42.4565 15.4488C42.1232 15.7821 41.936 16.2342 41.936 16.7056C41.936 17.1769 42.1232 17.629 42.4565 17.9623C42.7899 18.2957 43.2419 18.4829 43.7133 18.4829Z" fill="#161616"/>
<path d="M26.7545 88.2371H19.9752C19.5038 88.2371 19.0517 88.4243 18.7184 88.7576C18.3851 89.091 18.1978 89.543 18.1978 90.0144V105.294C18.1977 105.528 18.2436 105.759 18.3328 105.975C18.4221 106.191 18.553 106.386 18.7181 106.552C18.8832 106.717 19.0791 106.848 19.2948 106.937C19.5105 107.026 19.7417 107.072 19.9752 107.072H26.7545C27.2258 107.072 27.6779 106.885 28.0112 106.551C28.3445 106.218 28.5318 105.766 28.5318 105.294V90.0144C28.5315 89.5431 28.3442 89.0912 28.0109 88.7579C27.6777 88.4247 27.2258 88.2373 26.7545 88.2371ZM24.9771 103.517H21.7525V91.7917H24.9771V103.517Z" fill="#161616"/>
<path d="M41.4049 77.5018H34.6256C34.392 77.502 34.1608 77.5481 33.9451 77.6376C33.7294 77.7271 33.5334 77.8582 33.3684 78.0234C33.2033 78.1887 33.0724 78.3848 32.9832 78.6006C32.8939 78.8164 32.8481 79.0477 32.8482 79.2812V105.296C32.8482 105.768 33.0355 106.22 33.3688 106.553C33.7021 106.887 34.1542 107.074 34.6256 107.074H41.4049C41.6383 107.074 41.8695 107.028 42.0852 106.939C42.3009 106.849 42.4969 106.719 42.6619 106.553C42.827 106.388 42.9579 106.192 43.0472 105.977C43.1364 105.761 43.1823 105.53 43.1822 105.296V79.2812C43.1825 79.0476 43.1367 78.8163 43.0475 78.6004C42.9583 78.3845 42.8274 78.1884 42.6623 78.0231C42.4973 77.8579 42.3013 77.7268 42.0855 77.6373C41.8697 77.5479 41.6384 77.5018 41.4049 77.5018ZM39.6275 103.517H36.4029V81.0565H39.6275V103.517Z" fill="#161616"/>
<path d="M56.0562 81.6456H49.2759C48.8045 81.6456 48.3524 81.8329 48.0191 82.1662C47.6858 82.4995 47.4985 82.9516 47.4985 83.423V105.294C47.4985 105.766 47.6858 106.218 48.0191 106.551C48.3524 106.885 48.8045 107.072 49.2759 107.072H56.0562C56.5276 107.072 56.9796 106.885 57.313 106.551C57.6463 106.218 57.8335 105.766 57.8335 105.294V83.423C57.8335 82.9516 57.6463 82.4995 57.313 82.1662C56.9796 81.8329 56.5276 81.6456 56.0562 81.6456ZM54.2788 103.517H51.0532V85.2003H54.2788V103.517Z" fill="#161616"/>
<path d="M70.7056 70.0969H63.9273C63.4559 70.0969 63.0039 70.2842 62.6705 70.6175C62.3372 70.9508 62.15 71.4029 62.15 71.8743V105.294C62.1498 105.528 62.1957 105.759 62.285 105.975C62.3743 106.19 62.5052 106.386 62.6702 106.551C62.8353 106.717 63.0313 106.847 63.247 106.937C63.4627 107.026 63.6939 107.072 63.9273 107.072H70.7056C70.939 107.072 71.1702 107.026 71.3859 106.937C71.6016 106.847 71.7976 106.717 71.9627 106.551C72.1277 106.386 72.2586 106.19 72.3479 105.975C72.4372 105.759 72.4831 105.528 72.4829 105.294V71.8743C72.4829 71.4029 72.2957 70.9508 71.9624 70.6175C71.629 70.2842 71.177 70.0969 70.7056 70.0969ZM68.9282 103.517H65.7047V73.6516H68.9282V103.517Z" fill="#161616"/>
</svg>
