<svg width="21" height="21" viewBox="0 0 21 21" fill="none" xmlns="http://www.w3.org/2000/svg">
<path d="M10.5 0C6.42912 0 3.11719 3.31193 3.11719 7.38281C3.11719 8.75823 3.49818 10.1005 4.21924 11.265L10.0798 20.7092C10.192 20.8901 10.3898 21 10.6025 21C10.6041 21 10.6057 21 10.6074 21C10.8219 20.9983 11.0201 20.885 11.1303 20.7009L16.8415 11.1653C17.5227 10.0254 17.8828 8.71742 17.8828 7.38281C17.8828 3.31193 14.5709 0 10.5 0ZM15.7855 10.5336L10.5932 19.2029L5.26505 10.6167C4.66487 9.64745 4.33945 8.5292 4.33945 7.38281C4.33945 3.99041 7.1076 1.22227 10.5 1.22227C13.8924 1.22227 16.6564 3.99041 16.6564 7.38281C16.6564 8.4952 16.3525 9.58486 15.7855 10.5336Z" fill="white"/>
<path d="M10.5 3.69141C8.46456 3.69141 6.80859 5.34737 6.80859 7.38281C6.80859 9.40525 8.43761 11.0742 10.5 11.0742C12.5878 11.0742 14.1914 9.38302 14.1914 7.38281C14.1914 5.34737 12.5354 3.69141 10.5 3.69141ZM10.5 9.85195C9.13594 9.85195 8.03086 8.74318 8.03086 7.38281C8.03086 6.02585 9.14304 4.91367 10.5 4.91367C11.857 4.91367 12.965 6.02585 12.965 7.38281C12.965 8.72333 11.8857 9.85195 10.5 9.85195Z" fill="white"/>
</svg>
