<svg width="20" height="14" viewBox="0 0 20 14" fill="none" xmlns="http://www.w3.org/2000/svg">
<path d="M17.125 0.407715H2.83932C1.60676 0.408133 0.607736 1.4073 0.607178 2.63986V10.9745C0.607736 12.2071 1.60676 13.2064 2.83932 13.2067H17.125C18.3576 13.2064 19.3566 12.2071 19.3572 10.9745V2.63986C19.3566 1.4073 18.3576 0.408133 17.125 0.407715ZM2.83932 1.30057H17.125C17.768 1.30225 18.3198 1.75858 18.442 2.38972L9.98218 7.10414L1.52236 2.38972C1.64457 1.75858 2.19632 1.30225 2.83932 1.30057ZM17.125 12.3095H2.83932C2.10062 12.3073 1.50213 11.7089 1.50003 10.9702V3.39879L9.76343 8.00579C9.83039 8.04262 9.90559 8.06271 9.98218 8.06396C10.059 8.0648 10.1345 8.04471 10.2009 8.00579L18.4643 3.39879V10.9702C18.4638 11.7096 17.8644 12.3088 17.125 12.3095Z" fill="white"/>
</svg>
