<svg width="30" height="40" viewBox="0 0 30 40" fill="none" xmlns="http://www.w3.org/2000/svg">
<path d="M15 0C7.24594 0 0.9375 6.30844 0.9375 14.0625C0.9375 16.6823 1.6632 19.2391 3.03664 21.4572L14.1995 39.446C14.4134 39.7906 14.7901 40 15.1952 40C15.1984 40 15.2014 40 15.2045 40C15.6132 39.9968 15.9907 39.7809 16.2006 39.4303L27.079 21.2672C28.3766 19.0959 29.0625 16.6046 29.0625 14.0625C29.0625 6.30844 22.7541 0 15 0ZM25.0677 20.0639L15.1775 36.577L5.02867 20.2223C3.88547 18.3761 3.26563 16.2461 3.26563 14.0625C3.26563 7.60078 8.53828 2.32812 15 2.32812C21.4617 2.32812 26.7266 7.60078 26.7266 14.0625C26.7266 16.1813 26.1476 18.2569 25.0677 20.0639Z" fill="white"/>
</svg>
