<svg width="30" height="30" viewBox="0 0 30 30" fill="none" xmlns="http://www.w3.org/2000/svg">
<g filter="url(#filter0_d)">
<path d="M27.6316 19.7526C25.781 19.7526 23.9684 19.4637 22.249 18.8953C21.4105 18.6063 20.46 18.829 19.9074 19.3911L16.5016 21.9632C12.5953 19.879 10.0942 17.3795 8.03532 13.4985L10.5379 10.1732C11.1679 9.54164 11.3937 8.62106 11.1237 7.7574C10.5537 6.03 10.2632 4.21579 10.2632 2.36842C10.2632 1.06261 9.20058 0 7.89477 0H2.36842C1.06261 0 0 1.06261 0 2.36842C0 17.6037 12.3963 30 27.6316 30C28.9374 30 30 28.9374 30 27.6316V22.1211C30 20.8153 28.9374 19.7526 27.6316 19.7526ZM28.4211 27.6316C28.4211 28.0674 28.0658 28.4211 27.6316 28.4211C13.2663 28.4211 1.57892 16.7337 1.57892 2.36842C1.57892 1.93263 1.93419 1.57892 2.36842 1.57892H7.89477C8.329 1.57892 8.68427 1.93263 8.68427 2.36842C8.68427 4.38477 9.00008 6.36477 9.61898 8.24211C9.71053 8.53735 9.63637 8.84214 9.34743 9.14211L6.47371 12.9474C6.29216 13.1889 6.26374 13.5126 6.40111 13.781C8.74266 18.3805 11.5864 21.2258 16.219 23.599C16.4859 23.7379 16.8127 23.7095 17.0543 23.5264L20.9417 20.58C21.1533 20.3716 21.4643 20.299 21.7454 20.3921C23.6338 21.0158 25.6138 21.3316 27.6317 21.3316C28.066 21.3316 28.4212 21.6853 28.4212 22.1211V27.6316H28.4211Z" fill="white"/>
</g>
<defs>
<filter id="filter0_d" x="-4" y="0" width="38" height="38" filterUnits="userSpaceOnUse" color-interpolation-filters="sRGB">
<feFlood flood-opacity="0" result="BackgroundImageFix"/>
<feColorMatrix in="SourceAlpha" type="matrix" values="0 0 0 0 0 0 0 0 0 0 0 0 0 0 0 0 0 0 127 0" result="hardAlpha"/>
<feOffset dy="4"/>
<feGaussianBlur stdDeviation="2"/>
<feComposite in2="hardAlpha" operator="out"/>
<feColorMatrix type="matrix" values="0 0 0 0 0 0 0 0 0 0 0 0 0 0 0 0 0 0 0.25 0"/>
<feBlend mode="normal" in2="BackgroundImageFix" result="effect1_dropShadow"/>
<feBlend mode="normal" in="SourceGraphic" in2="effect1_dropShadow" result="shape"/>
</filter>
</defs>
</svg>
